<svg width="30" height="30" viewBox="0 0 30 30" fill="none" xmlns="http://www.w3.org/2000/svg">
<path d="M14.7209 17.64C14.7209 17.2027 14.7903 16.8187 14.9289 16.488C15.0783 16.1573 15.2596 15.8747 15.4729 15.64C15.6863 15.4053 15.9636 15.1387 16.3049 14.84C16.7636 14.4347 17.0996 14.0827 17.3129 13.784C17.5369 13.4747 17.6489 13.1013 17.6489 12.664C17.6489 12.0773 17.4196 11.608 16.9609 11.256C16.5023 10.8933 15.8729 10.712 15.0729 10.712C13.7503 10.712 12.7316 11.144 12.0169 12.008L11.1689 11.368C12.0756 10.2587 13.4036 9.704 15.1529 9.704C16.2729 9.704 17.1636 9.95467 17.8249 10.456C18.4969 10.9573 18.8329 11.6347 18.8329 12.488C18.8329 12.9253 18.7583 13.3147 18.6089 13.656C18.4703 13.9867 18.2943 14.2693 18.0809 14.504C17.8783 14.7387 17.6063 15.0107 17.2649 15.32C16.8063 15.736 16.4649 16.1093 16.2409 16.44C16.0169 16.76 15.9049 17.16 15.9049 17.64H14.7209ZM15.3129 21.08C15.0783 21.08 14.8809 21 14.7209 20.84C14.5609 20.6693 14.4809 20.472 14.4809 20.248C14.4809 20.0133 14.5609 19.8213 14.7209 19.672C14.8809 19.512 15.0783 19.432 15.3129 19.432C15.5583 19.432 15.7609 19.512 15.9209 19.672C16.0809 19.8213 16.1609 20.0133 16.1609 20.248C16.1609 20.472 16.0756 20.6693 15.9049 20.84C15.7449 21 15.5476 21.08 15.3129 21.08Z" fill="#FA0105"/>
<circle cx="15" cy="15" r="14.5" stroke="#FA0105"/>
</svg>
