<svg width="50" height="51" viewBox="0 0 50 51" fill="none" xmlns="http://www.w3.org/2000/svg">
<path d="M38.2714 26.7934L46.7387 33.0028C47.7272 33.7276 47.837 35.163 46.9702 36.0298L42.2793 40.7207C42.0908 40.9092 41.8799 41.0748 41.6409 41.193C37.9311 43.0275 28.5319 43.7321 17.7092 32.9093C6.88638 22.0865 7.59106 12.6874 9.42564 8.97772C9.54384 8.73871 9.70942 8.52789 9.89797 8.33934L14.5889 3.64842C15.4556 2.78167 16.891 2.89144 17.6159 3.87991L23.8253 12.3472C24.1171 12.7452 24.075 13.2967 23.726 13.6457L20.6241 16.7475C20.179 17.1927 19.9623 17.8234 19.9427 18.4526C19.8921 20.0733 19.7675 22.3305 24.0278 26.5908C28.2882 30.8511 30.5453 30.7266 32.166 30.676C32.7952 30.6563 33.426 30.4397 33.8711 29.9945L36.973 26.8927C37.322 26.5437 37.8734 26.5015 38.2714 26.7934Z" stroke="url(#paint0_linear)" stroke-width="2"/>
<defs>
<linearGradient id="paint0_linear" x1="8.87795" y1="9.35936" x2="41.2058" y2="41.6872" gradientUnits="userSpaceOnUse">
<stop stop-color="#FA0105"/>
<stop offset="1" stop-color="#FF8183"/>
</linearGradient>
</defs>
</svg>
