<?xml version="1.0" encoding="utf-8"?>
<!-- Generator: Adobe Illustrator 20.1.0, SVG Export Plug-In . SVG Version: 6.00 Build 0)  -->
<svg version="1.1" id="Layer_1" xmlns="http://www.w3.org/2000/svg" xmlns:xlink="http://www.w3.org/1999/xlink" x="0px" y="0px"
	 viewBox="0 0 155 75" style="enable-background:new 0 0 155 75;" xml:space="preserve">
<style type="text/css">
	.st0{fill:#FB0007;}
	.st1{fill:#DDDDDD;}
	.st2{fill:#FA0105;}
</style>
<g>
	<path class="st0" d="M116.7,53.9l-2,2.1l18.8,19h0l20.5-21.1H116.7z"/>
	<path class="st1" d="M59.1,0L59.1,0L40.6,19l55.6,56h37.3L59.1,0z"/>
	<path class="st2" d="M59.1,0H21.8L1.4,21.1h37.3L59.1,0z"/>
	<path d="M21.3,30h-7.6v19.3H8.2V30H0.7v-4.5h20.6V30z M28.2,48.1c-2-1.1-3.5-2.5-4.6-4.4c-1.1-1.9-1.7-4-1.7-6.3
		c0-2.3,0.6-4.4,1.7-6.3c1.1-1.9,2.7-3.3,4.6-4.4c2-1.1,4.2-1.6,6.7-1.6c2.5,0,4.7,0.5,6.7,1.6c2,1.1,3.5,2.5,4.6,4.4
		c1.1,1.9,1.7,4,1.7,6.3c0,2.3-0.6,4.4-1.7,6.3c-1.1,1.9-2.7,3.3-4.6,4.4c-2,1.1-4.2,1.6-6.7,1.6S30.1,49.2,28.2,48.1z M38.6,44.1
		c1.1-0.6,2-1.5,2.7-2.7c0.6-1.2,1-2.5,1-3.9c0-1.5-0.3-2.8-1-3.9c-0.6-1.2-1.5-2-2.7-2.7c-1.1-0.6-2.4-1-3.8-1s-2.7,0.3-3.8,1
		c-1.1,0.6-2,1.5-2.7,2.7c-0.6,1.2-1,2.5-1,3.9c0,1.5,0.3,2.8,1,3.9c0.6,1.2,1.5,2,2.7,2.7c1.1,0.6,2.4,1,3.8,1
		C36.2,45,37.5,44.7,38.6,44.1z M72.6,25.6v23.8h-5.5V30H56.5v19.3H51V25.6H72.6z M102,44.8v9.4h-5.1v-4.9H80.1v4.9H75l0-9.4h1
		c1.4,0,2.4-1.1,3-3.1c0.6-2,1-4.9,1.1-8.7l0.3-7.4h18.3v19.3L102,44.8L102,44.8z M84.2,40.6c-0.4,1.9-0.9,3.3-1.7,4.2h10.6V30H85
		L85,33.5C84.8,36.3,84.6,38.7,84.2,40.6z M122,44.2h-11l-2.1,5.1h-5.6l10.6-23.8h5.4l10.6,23.8h-5.8L122,44.2z M120.3,40.1
		l-3.8-9.1l-3.8,9.1H120.3z M137.9,25.6l4.9,7.2l4.9-7.2h6.4l-7.9,11.4l8.5,12.4h-6.5l-5.5-7.9l-5.5,7.9H131l8.5-12.1l-7.9-11.6
		L137.9,25.6L137.9,25.6z"/>
</g>
</svg>
