<svg width="19" height="28" viewBox="0 0 19 28" fill="none" xmlns="http://www.w3.org/2000/svg">
<path d="M9.5 0C4.26181 0 0 4.26181 0 9.5C0 11.2696 0.490306 12.9971 1.41814 14.4954L8.95903 26.648C9.10364 26.8808 9.35803 27.0222 9.63142 27.0222C9.63353 27.0222 9.63564 27.0222 9.63775 27.0222C9.91378 27.0201 10.1687 26.8744 10.3107 26.6375L17.6594 14.3672C18.5366 12.9005 19 11.2174 19 9.5C19 4.26181 14.7382 0 9.5 0ZM16.3015 13.5544L9.61981 24.71L2.76397 13.6615C1.99131 12.4139 1.57278 10.9751 1.57278 9.5C1.57278 5.13475 5.13475 1.57278 9.5 1.57278C13.8652 1.57278 17.4219 5.13475 17.4219 9.5C17.4219 10.9313 17.0309 12.3336 16.3015 13.5544Z" fill="url(#paint0_linear)"/>
<path d="M9.5 4.75C6.88064 4.75 4.75 6.88064 4.75 9.5C4.75 12.1025 6.84633 14.25 9.5 14.25C12.1864 14.25 14.25 12.074 14.25 9.5C14.25 6.88064 12.1194 4.75 9.5 4.75ZM9.5 12.6772C7.74461 12.6772 6.32278 11.2506 6.32278 9.5C6.32278 7.75411 7.75411 6.32278 9.5 6.32278C11.2459 6.32278 12.6719 7.75411 12.6719 9.5C12.6719 11.2248 11.2828 12.6772 9.5 12.6772Z" fill="url(#paint1_linear)"/>
<defs>
<linearGradient id="paint0_linear" x1="0" y1="13.5111" x2="18.9686" y2="13.5111" gradientUnits="userSpaceOnUse">
<stop stop-color="#FA0105"/>
<stop offset="1" stop-color="#FF5154"/>
</linearGradient>
<linearGradient id="paint1_linear" x1="4.75" y1="9.5" x2="14.2343" y2="9.5" gradientUnits="userSpaceOnUse">
<stop stop-color="#FA0105"/>
<stop offset="1" stop-color="#FF5154"/>
</linearGradient>
</defs>
</svg>
