<svg width="27" height="28" viewBox="0 0 27 28" fill="none" xmlns="http://www.w3.org/2000/svg">
<path d="M21.3236 16.7912C20.7708 16.2155 20.1039 15.9077 19.3971 15.9077C18.696 15.9077 18.0235 16.2098 17.4478 16.7855L15.6466 18.581C15.4984 18.5012 15.3502 18.4271 15.2077 18.353C15.0026 18.2504 14.8088 18.1535 14.6435 18.0509C12.9563 16.9793 11.4231 15.5829 9.95252 13.776C9.24005 12.8754 8.76126 12.1174 8.41358 11.3479C8.88096 10.9204 9.31414 10.4758 9.73593 10.0483C9.89552 9.88875 10.0551 9.72345 10.2147 9.56386C11.4117 8.3669 11.4117 6.81655 10.2147 5.61959L8.65867 4.06354C8.48197 3.88685 8.29958 3.70445 8.12858 3.52206C7.7866 3.16867 7.42751 2.80388 7.05702 2.4619C6.50414 1.91471 5.84296 1.62402 5.14758 1.62402C4.45221 1.62402 3.77963 1.91471 3.20965 2.4619L3.19825 2.4733L1.26031 4.42833C0.530737 5.15791 0.114651 6.04708 0.0234539 7.07874C-0.113342 8.74309 0.376842 10.2934 0.75303 11.308C1.6764 13.7988 3.05575 16.1072 5.11338 18.581C7.6099 21.562 10.6137 23.916 14.045 25.5746C15.3559 26.1959 17.1058 26.9312 19.0608 27.0566C19.1805 27.0623 19.3059 27.068 19.4199 27.068C20.7366 27.068 21.8423 26.5949 22.7087 25.6544C22.7144 25.643 22.7258 25.6373 22.7315 25.6259C23.0279 25.2668 23.3699 24.9419 23.729 24.5943C23.9741 24.3606 24.2248 24.1155 24.4699 23.859C25.0342 23.2719 25.3306 22.5879 25.3306 21.8868C25.3306 21.1801 25.0285 20.5018 24.4528 19.9318L21.3236 16.7912ZM23.3642 22.7931C23.3585 22.7931 23.3585 22.7988 23.3642 22.7931C23.1419 23.0325 22.9139 23.2491 22.6688 23.4885C22.2983 23.8419 21.9221 24.2124 21.5687 24.6285C20.9931 25.244 20.3148 25.5347 19.4256 25.5347C19.3401 25.5347 19.2489 25.5347 19.1634 25.529C17.4706 25.4207 15.8974 24.7596 14.7176 24.1953C11.4915 22.6335 8.65867 20.4163 6.30465 17.6063C4.36101 15.2637 3.06145 13.0977 2.20078 10.7722C1.6707 9.35296 1.47691 8.2472 1.5624 7.20414C1.6194 6.53726 1.87589 5.98438 2.34898 5.51129L4.29261 3.56766C4.5719 3.30547 4.86829 3.16297 5.15898 3.16297C5.51807 3.16297 5.80876 3.37956 5.99116 3.56196L6.00826 3.57906C6.35594 3.90395 6.68653 4.24024 7.03422 4.59932C7.21092 4.78172 7.39331 4.96411 7.5757 5.15221L9.13175 6.70825C9.73593 7.31243 9.73593 7.87102 9.13175 8.47519C8.96646 8.64049 8.80686 8.80578 8.64157 8.96538C8.16278 9.45556 7.7068 9.91155 7.21092 10.3561C7.19952 10.3675 7.18812 10.3732 7.18242 10.3846C6.69223 10.8748 6.78343 11.3536 6.88603 11.6785L6.90313 11.7298C7.30781 12.7102 7.87779 13.6335 8.74416 14.7336L8.74986 14.7393C10.323 16.6772 11.9817 18.1877 13.8113 19.3447C14.045 19.4929 14.2844 19.6126 14.5124 19.7266C14.7176 19.8292 14.9114 19.9261 15.0767 20.0287C15.0995 20.0401 15.1223 20.0572 15.1451 20.0686C15.3388 20.1655 15.5212 20.2111 15.7093 20.2111C16.1824 20.2111 16.4788 19.9147 16.5757 19.8178L18.525 17.8685C18.7188 17.6747 19.0266 17.441 19.3857 17.441C19.7391 17.441 20.0298 17.6633 20.2065 17.8571L23.3585 21.0091C23.9456 21.5905 23.9456 22.1889 23.3642 22.7931Z" fill="url(#paint0_linear)"/>
<path d="M14.5758 6.48641C16.0691 6.7372 17.4257 7.44398 18.5086 8.52694C19.5916 9.60991 20.2927 10.9665 20.5492 12.4598C20.6119 12.836 20.9367 13.0982 21.3072 13.0982C21.3528 13.0982 21.3927 13.0925 21.4383 13.0868C21.8601 13.0184 22.1394 12.6194 22.071 12.1976C21.7632 10.3908 20.9082 8.74354 19.603 7.43828C18.2977 6.13302 16.6505 5.27805 14.8436 4.97026C14.4219 4.90186 14.0286 5.18116 13.9545 5.59724C13.8804 6.01333 14.154 6.41801 14.5758 6.48641Z" fill="url(#paint1_linear)"/>
<path d="M26.9551 11.9754C26.4478 9.00013 25.0457 6.29272 22.8912 4.1382C20.7366 1.98367 18.0292 0.581514 15.0539 0.0742311C14.6378 0.000133529 14.2445 0.285124 14.1705 0.70121C14.1021 1.123 14.3813 1.51628 14.8031 1.59038C17.4592 2.04067 19.8817 3.30032 21.8082 5.22116C23.7347 7.14769 24.9887 9.57011 25.439 12.2262C25.5017 12.6024 25.8266 12.8646 26.1971 12.8646C26.2426 12.8646 26.2825 12.8589 26.3281 12.8532C26.7442 12.7905 27.0292 12.3915 26.9551 11.9754Z" fill="url(#paint2_linear)"/>
<defs>
<linearGradient id="paint0_linear" x1="0" y1="14.346" x2="25.2888" y2="14.346" gradientUnits="userSpaceOnUse">
<stop stop-color="#FA0105"/>
<stop offset="1" stop-color="#FF5154"/>
</linearGradient>
<linearGradient id="paint1_linear" x1="13.9424" y1="9.02908" x2="22.0679" y2="9.02908" gradientUnits="userSpaceOnUse">
<stop stop-color="#FA0105"/>
<stop offset="1" stop-color="#FF5154"/>
</linearGradient>
<linearGradient id="paint2_linear" x1="14.1602" y1="6.46355" x2="26.9457" y2="6.46355" gradientUnits="userSpaceOnUse">
<stop stop-color="#FA0105"/>
<stop offset="1" stop-color="#FF5154"/>
</linearGradient>
</defs>
</svg>
