<svg width="112" height="112" viewBox="0 0 112 112" fill="none" xmlns="http://www.w3.org/2000/svg">
<path d="M33.6155 54.24C32.3311 52.7955 30.1188 52.6658 28.6743 53.9502C27.2298 55.2347 27.1 57.447 28.3845 58.8915L33.6155 54.24ZM50.0593 78L47.4437 80.3257C48.1437 81.1128 49.1608 81.5429 50.2131 81.4966C51.2654 81.4503 52.2409 80.9326 52.8689 80.087L50.0593 78ZM84.8097 37.087C85.9623 35.5353 85.6388 33.343 84.087 32.1903C82.5353 31.0377 80.343 31.3612 79.1903 32.913L84.8097 37.087ZM28.3845 58.8915C32.106 63.0768 36.8708 68.4353 40.7053 72.7476C42.6225 74.9037 44.3071 76.7982 45.5124 78.1537C46.1151 78.8315 46.5979 79.3745 46.9301 79.748C47.0962 79.9349 47.2245 80.0792 47.3115 80.177C47.3549 80.2258 47.388 80.2631 47.4102 80.288C47.4214 80.3005 47.4296 80.3099 47.4353 80.3162C47.4385 80.3199 47.4398 80.3213 47.4416 80.3233C47.442 80.3237 47.4423 80.3241 47.4426 80.3244C47.4428 80.3247 47.443 80.3249 47.4432 80.3251C47.4434 80.3253 47.4435 80.3255 47.4436 80.3256C47.4437 80.3257 47.4437 80.3257 50.0593 78C52.6748 75.6743 52.6748 75.6742 52.6747 75.6741C52.6746 75.674 52.6745 75.6739 52.6743 75.6737C52.6731 75.6723 52.6742 75.6736 52.6727 75.6719C52.6709 75.6699 52.6695 75.6683 52.6664 75.6648C52.6608 75.6585 52.6523 75.649 52.6413 75.6365C52.6191 75.6116 52.5859 75.5743 52.5425 75.5255C52.4556 75.4278 52.3272 75.2834 52.1611 75.0966C51.829 74.723 51.3461 74.18 50.7435 73.5023C49.5382 72.1468 47.8536 70.2522 45.9363 68.0961C42.1019 63.7839 37.3371 58.4253 33.6155 54.24L28.3845 58.8915ZM52.8689 80.087L84.8097 37.087L79.1903 32.913L47.2496 75.913L52.8689 80.087Z" fill="#22DD2A"/>
<circle cx="56" cy="56" r="52" stroke="#22DD2A" stroke-width="7"/>
</svg>
